<?xml version="1.0" encoding="UTF-8" standalone="no"?>
<!DOCTYPE svg PUBLIC "-//W3C//DTD SVG 1.1//EN" "http://www.w3.org/Graphics/SVG/1.1/DTD/svg11.dtd">
<svg width="100%" height="100%" viewBox="0 0 1621 1621" version="1.1" xmlns="http://www.w3.org/2000/svg" xmlns:xlink="http://www.w3.org/1999/xlink" xml:space="preserve" xmlns:serif="http://www.serif.com/" style="fill-rule:evenodd;clip-rule:evenodd;stroke-linecap:round;stroke-linejoin:round;stroke-miterlimit:1;">
    <g transform="matrix(1,0,0,1,96.6456,224.804)">
        <g>
            <g transform="matrix(1.01863,0,0,1.01863,-7.70404,-38.0415)">
                <path d="M707.994,317.45C545.34,317.45 413.482,449.308 413.482,611.963C413.482,774.509 545.448,906.475 707.994,906.475C870.649,906.475 1002.51,774.618 1002.51,611.963C1002.51,774.618 870.649,906.475 707.994,906.475C545.448,906.475 413.482,774.509 413.482,611.963C413.482,449.308 545.34,317.45 707.994,317.45Z" style="fill:rgb(198,203,113);"/>
                <g transform="matrix(0.981709,-0,-0,0.981709,-87.3147,-183.346)">
                    <path d="M725.237,651.611L1149.69,510.127L725.237,368.643L725.237,651.611Z" style="fill:rgb(198,203,113);"/>
                    <path d="M810.127,510.127C644.442,510.127 510.127,644.442 510.127,810.127C510.127,975.702 644.553,1110.13 810.127,1110.13C975.813,1110.13 1110.13,975.813 1110.13,810.127C1110.13,975.813 975.813,1110.13 810.127,1110.13C644.553,1110.13 510.127,975.702 510.127,810.127C510.127,644.442 644.442,510.127 810.127,510.127Z" style="fill:none;stroke:rgb(198,203,113);stroke-width:94.32px;"/>
                </g>
            </g>
            <g transform="matrix(1,0,0,1,0,-32.1267)">
                <path d="M707.994,317.45C545.34,317.45 413.482,449.308 413.482,611.963C413.482,774.509 545.448,906.475 707.994,906.475C870.649,906.475 1002.51,774.618 1002.51,611.963C1002.51,774.618 870.649,906.475 707.994,906.475C545.448,906.475 413.482,774.509 413.482,611.963C413.482,449.308 545.34,317.45 707.994,317.45Z" style="fill:rgb(244,150,184);"/>
                <g transform="matrix(1,-0,-0,1,-96.6456,-192.677)">
                    <path d="M735.079,626.063L1082.88,510.127L735.079,394.192L735.079,626.063Z" style="fill:rgb(244,150,184);"/>
                    <path d="M804.64,510.127C641.985,510.127 510.127,641.985 510.127,804.64C510.127,967.186 642.094,1099.15 804.64,1099.15C967.295,1099.15 1099.15,967.295 1099.15,804.64C1099.15,967.295 967.295,1099.15 804.64,1099.15C642.094,1099.15 510.127,967.186 510.127,804.64C510.127,641.985 641.985,510.127 804.64,510.127Z" style="fill:none;stroke:rgb(244,150,184);stroke-width:77.29px;"/>
                </g>
            </g>
        </g>
    </g>
</svg>
