<?xml version="1.0" encoding="UTF-8" standalone="no"?>
<!DOCTYPE svg PUBLIC "-//W3C//DTD SVG 1.1//EN" "http://www.w3.org/Graphics/SVG/1.1/DTD/svg11.dtd">
<svg width="100%" height="100%" viewBox="0 0 454 454" version="1.1" xmlns="http://www.w3.org/2000/svg" xmlns:xlink="http://www.w3.org/1999/xlink" xml:space="preserve" xmlns:serif="http://www.serif.com/" style="fill-rule:evenodd;clip-rule:evenodd;stroke-linecap:round;stroke-linejoin:round;stroke-miterlimit:1.5;">
    <rect x="0" y="0" width="453.543" height="453.543" style="fill:rgb(235,235,235);stroke:black;stroke-width:12px;"/>
    <g transform="matrix(10.4046,0,0,10.4046,-10.3801,-22.338)">
        <circle cx="22.793" cy="23.942" r="14.439" style="fill:none;stroke:rgb(35,31,32);stroke-width:1.47px;"/>
    </g>
    <g transform="matrix(0.24,0,0,0.24,-15.8846,-30.1543)">
        <path d="M1011.07,271.573L1702.98,671.049L1702.98,1470L1011.07,1869.48L319.156,1470L319.156,671.049L1011.07,271.573Z" style="fill:none;stroke:rgb(92,44,69);stroke-width:62.5px;"/>
    </g>
    <g transform="matrix(0.118784,0.118784,-0.118784,0.118784,233.834,-20.4877)">
        <path d="M1011.07,271.573L1810.02,1070.53L1011.07,1869.48L212.116,1070.53L1011.07,271.573Z" style="fill:none;stroke:rgb(92,44,69);stroke-width:89.29px;"/>
    </g>
    <g transform="matrix(3.71796e-16,-6.0432,3.66357,2.37895e-16,145.052,379.121)">
        <path d="M22.677,1.359L22.677,43.252" style="fill:none;stroke:rgb(35,31,32);stroke-width:1.5px;"/>
    </g>
    <g transform="matrix(3.71796e-16,-6.0432,3.66357,2.37895e-16,145.052,333.081)">
        <path d="M22.677,1.359L22.677,43.252" style="fill:none;stroke:rgb(35,31,32);stroke-width:1.5px;"/>
    </g>
</svg>
