<?xml version="1.0" encoding="UTF-8" standalone="no"?>
<!DOCTYPE svg PUBLIC "-//W3C//DTD SVG 1.1//EN" "http://www.w3.org/Graphics/SVG/1.1/DTD/svg11.dtd">
<svg width="100%" height="100%" viewBox="0 0 454 454" version="1.1" xmlns="http://www.w3.org/2000/svg" xmlns:xlink="http://www.w3.org/1999/xlink" xml:space="preserve" xmlns:serif="http://www.serif.com/" style="fill-rule:evenodd;clip-rule:evenodd;stroke-linecap:round;stroke-linejoin:round;stroke-miterlimit:1.5;">
    <rect x="0" y="0" width="453.543" height="453.543" style="fill:rgb(235,235,235);stroke:black;stroke-width:12px;"/>
    <g transform="matrix(0.210949,1.171e-17,-1.171e-17,0.210949,27.45,46.9383)">
        <g transform="matrix(28.2896,0,0,28.2896,-138.005,-14.1104)">
            <circle cx="22.793" cy="23.942" r="14.439" style="fill:none;stroke:black;stroke-width:2.21px;"/>
        </g>
        <g transform="matrix(28.2896,-4.08313e-16,-4.03319e-16,38.7537,-134.731,-11.9404)">
            <path d="M22.677,1.359L22.677,43.252" style="fill:none;stroke:black;stroke-width:1.84px;"/>
        </g>
        <g transform="matrix(28.2896,0,0,28.2896,738.168,394.372)">
            <circle cx="22.793" cy="23.942" r="14.439" style="fill:none;stroke:black;stroke-width:2.21px;"/>
        </g>
        <g transform="matrix(28.2896,5.80876e-16,5.80876e-16,38.7537,741.442,-11.9404)">
            <path d="M22.677,1.359L22.677,43.252" style="fill:none;stroke:black;stroke-width:1.84px;"/>
        </g>
        <g transform="matrix(0.97334,-0.000190368,-0.000190368,0.999999,0.302908,-287.833)">
            <path d="M536.399,944.882L1436.57,951.31" style="fill:none;stroke:rgb(35,31,32);stroke-width:62.5px;"/>
        </g>
    </g>
</svg>
