<?xml version="1.0" encoding="UTF-8" standalone="no"?>
<!DOCTYPE svg PUBLIC "-//W3C//DTD SVG 1.1//EN" "http://www.w3.org/Graphics/SVG/1.1/DTD/svg11.dtd">
<svg width="100%" height="100%" viewBox="0 0 454 454" version="1.1" xmlns="http://www.w3.org/2000/svg" xmlns:xlink="http://www.w3.org/1999/xlink" xml:space="preserve" xmlns:serif="http://www.serif.com/" style="fill-rule:evenodd;clip-rule:evenodd;stroke-linecap:round;stroke-linejoin:round;stroke-miterlimit:1.5;">
    <rect x="0" y="0" width="453.543" height="453.543" style="fill:rgb(235,235,235);stroke:black;stroke-width:12px;"/>
    <g transform="matrix(0.211435,0,0,0.211435,33.5325,20.4495)">
        <g>
            <g transform="matrix(25.8012,0,0,25.8012,-139.509,327.145)">
                <circle cx="22.793" cy="23.942" r="14.439" style="stroke:black;stroke-width:2.43px;"/>
            </g>
            <g transform="matrix(-25.8012,-3.15974e-15,3.15974e-15,-25.8012,1967.4,1562.62)">
                <circle cx="22.793" cy="23.942" r="14.439" style="stroke:black;stroke-width:2.43px;"/>
            </g>
            <g transform="matrix(-4.73961e-15,25.8012,-25.8012,-4.73961e-15,1562.62,-77.6313)">
                <circle cx="22.793" cy="23.942" r="14.439" style="stroke:black;stroke-width:2.43px;"/>
            </g>
            <g transform="matrix(-4.14915e-15,-25.8012,25.8012,-4.14915e-15,327.145,2029.27)">
                <circle cx="22.793" cy="23.942" r="14.439" style="stroke:black;stroke-width:2.43px;"/>
            </g>
        </g>
        <g>
            <g transform="matrix(25.8012,0,0,25.8012,-15.7541,327.145)">
                <circle cx="22.793" cy="23.942" r="14.439" style="fill:none;stroke:rgb(235,235,235);stroke-width:1.61px;"/>
            </g>
            <g transform="matrix(-25.8012,-3.15974e-15,3.15974e-15,-25.8012,1843.64,1562.62)">
                <circle cx="22.793" cy="23.942" r="14.439" style="fill:none;stroke:rgb(235,235,235);stroke-width:1.61px;"/>
            </g>
            <g transform="matrix(-4.73961e-15,25.8012,-25.8012,-4.73961e-15,1562.62,46.1232)">
                <clipPath id="_clip1">
                    <rect x="6.144" y="7.834" width="14.251" height="32.216"/>
                </clipPath>
                <g clip-path="url(#_clip1)">
                    <circle cx="22.793" cy="23.942" r="14.439" style="fill:none;stroke:rgb(235,235,235);stroke-width:1.61px;"/>
                </g>
            </g>
            <g transform="matrix(-4.14915e-15,-25.8012,25.8012,-4.14915e-15,327.145,1905.52)">
                <clipPath id="_clip2">
                    <rect x="5.392" y="4.706" width="17.401" height="41.338"/>
                </clipPath>
                <g clip-path="url(#_clip2)">
                    <circle cx="22.793" cy="23.942" r="14.439" style="fill:none;stroke:rgb(235,235,235);stroke-width:1.61px;"/>
                </g>
            </g>
        </g>
        <g transform="matrix(25.8012,0,0,25.8012,356.798,327.145)">
            <circle cx="22.793" cy="23.942" r="14.439" style="stroke:rgb(235,235,235);stroke-width:2.43px;"/>
        </g>
    </g>
</svg>
