<?xml version="1.0" encoding="UTF-8" standalone="no"?>
<!DOCTYPE svg PUBLIC "-//W3C//DTD SVG 1.1//EN" "http://www.w3.org/Graphics/SVG/1.1/DTD/svg11.dtd">
<svg width="100%" height="100%" viewBox="0 0 454 454" version="1.1" xmlns="http://www.w3.org/2000/svg" xmlns:xlink="http://www.w3.org/1999/xlink" xml:space="preserve" xmlns:serif="http://www.serif.com/" style="fill-rule:evenodd;clip-rule:evenodd;stroke-linecap:round;stroke-linejoin:round;stroke-miterlimit:1.5;">
    <rect x="0" y="0" width="453.543" height="453.543" style="fill:rgb(235,235,235);stroke:black;stroke-width:12px;"/>
    <g transform="matrix(0.211343,0,0,0.211343,27.0772,27.0772)">
        <g transform="matrix(41.7472,0,0,41.7472,-6.65645,-54.6359)">
            <circle cx="22.793" cy="23.942" r="14.439" style="fill:none;stroke:black;stroke-width:1px;"/>
        </g>
        <g transform="matrix(54.8044,0,0,54.0238,-304.266,-348.565)">
            <circle cx="22.793" cy="23.942" r="14.439" style="fill:none;stroke:black;stroke-width:1.15px;"/>
        </g>
        <g transform="matrix(25.816,0,0,25.816,356.461,326.791)">
            <circle cx="22.793" cy="23.942" r="14.439" style="fill:none;stroke:black;stroke-width:0.81px;"/>
        </g>
        <g transform="matrix(32.7823,0,0,32.7823,197.68,160.004)">
            <circle cx="22.793" cy="23.942" r="14.439" style="fill:none;stroke:black;stroke-width:0.64px;"/>
        </g>
        <g transform="matrix(16.3911,0,0,16.3911,571.281,552.443)">
            <circle cx="22.793" cy="23.942" r="14.439" style="fill:none;stroke:black;stroke-width:2.55px;"/>
        </g>
        <g transform="matrix(8.19556,0,0,8.19556,758.081,748.662)">
            <circle cx="22.793" cy="23.942" r="14.439" style="stroke:black;stroke-width:5.09px;"/>
        </g>
    </g>
</svg>
