<?xml version="1.0" encoding="UTF-8" standalone="no"?>
<!DOCTYPE svg PUBLIC "-//W3C//DTD SVG 1.1//EN" "http://www.w3.org/Graphics/SVG/1.1/DTD/svg11.dtd">
<svg width="100%" height="100%" viewBox="0 0 300 300" version="1.1" xmlns="http://www.w3.org/2000/svg" xmlns:xlink="http://www.w3.org/1999/xlink" xml:space="preserve" xmlns:serif="http://www.serif.com/" style="fill-rule:evenodd;clip-rule:evenodd;stroke-linejoin:round;stroke-miterlimit:2;">
    <g transform="matrix(1.07326,0,0,1.07326,-13.7073,-18.7961)">
        <circle cx="152.532" cy="157.274" r="127.963"/>
    </g>
    <g transform="matrix(1.18982,0,0,1.01067,-80.4665,-8.50804)">
        <path d="M193.427,93.502C214.82,45.043 257.605,45.043 278.998,69.273C300.392,93.502 300.392,141.961 278.998,190.42C264.023,226.765 225.516,263.109 193.427,287.338C161.337,263.109 122.83,226.765 107.855,190.42C86.462,141.961 86.462,93.502 107.855,69.273C129.248,45.043 172.034,45.043 193.427,93.502Z" style="fill:rgb(230,26,26);"/>
    </g>
    <g transform="matrix(21.3036,0,0,21.3036,-2570.72,-2402.35)">
        <text x="124.353px" y="124.569px" style="font-family:'Algerian', fantasy;font-stretch:extra-condensed;font-size:12px;fill:rgb(235,235,235);">B</text>
    </g>
</svg>
